{
	"asset":{
		"generator":"Khronos glTF Blender I/O v4.0.44",
		"version":"2.0"
	},
	"scene":0,
	"scenes":[
		{
			"name":"Scene",
			"nodes":[
				0
			]
		}
	],
	"nodes":[
		{
			"mesh":0,
			"name":"Cylinder"
		}
	],
	"materials":[
		{
			"doubleSided":true,
			"name":"Material.001",
			"pbrMetallicRoughness":{
				"metallicFactor":0,
				"roughnessFactor":0.5
			}
		}
	],
	"meshes":[
		{
			"name":"Cylinder",
			"primitives":[
				{
					"attributes":{
						"POSITION":0,
						"NORMAL":1,
						"TEXCOORD_0":2
					},
					"indices":3,
					"material":0
				}
			]
		}
	],
	"accessors":[
		{
			"bufferView":0,
			"componentType":5126,
			"count":4224,
			"max":[
				3.887922525405884,
				0.6184589862823486,
				3.887922525405884
			],
			"min":[
				-3.887922525405884,
				-1.2889386415481567,
				-3.887922525405884
			],
			"type":"VEC3"
		},
		{
			"bufferView":1,
			"componentType":5126,
			"count":4224,
			"type":"VEC3"
		},
		{
			"bufferView":2,
			"componentType":5126,
			"count":4224,
			"type":"VEC2"
		},
		{
			"bufferView":3,
			"componentType":5123,
			"count":6900,
			"type":"SCALAR"
		}
	],
	"bufferViews":[
		{
			"buffer":0,
			"byteLength":50688,
			"byteOffset":0,
			"target":34962
		},
		{
			"buffer":0,
			"byteLength":50688,
			"byteOffset":50688,
			"target":34962
		},
		{
			"buffer":0,
			"byteLength":33792,
			"byteOffset":101376,
			"target":34962
		},
		{
			"buffer":0,
			"byteLength":13800,
			"byteOffset":135168,
			"target":34963
		}
	],
	"buffers":[
		{
			"byteLength":148968,
			"uri":"dish.bin"
		}
	]
}
